<?xml version="1.0" standalone="no"?>
<!DOCTYPE svg PUBLIC "-//W3C//DTD SVG 20010904//EN"
 "http://www.w3.org/TR/2001/REC-SVG-20010904/DTD/svg10.dtd">
<svg version="1.0" xmlns="http://www.w3.org/2000/svg"
 width="100%" height="100%" viewBox="0 0 1200.000000 1200.000000"
 preserveAspectRatio="xMidYMid meet">

<g transform="translate(0.000000,1200.000000) scale(0.100000,-0.100000)"
fill="#000000" stroke="none">
<path d="M5828 9657 c-76 -45 -138 -85 -138 -90 0 -7 209 -317 230 -340 4 -4
55 94 114 219 58 125 105 228 104 229 -26 24 -116 65 -141 64 -21 0 -79 -28
-169 -82z"/>
<path d="M6161 9578 c-16 -34 -65 -141 -110 -237 -44 -95 -81 -177 -81 -181 0
-5 120 -183 266 -397 147 -213 272 -396 279 -406 11 -16 41 35 239 397 124
228 226 418 226 423 0 7 -752 451 -780 461 -6 2 -23 -25 -39 -60z"/>
<path d="M4910 9121 l-715 -418 -3 -99 -2 -99 446 -544 447 -543 51 108 c29
60 211 450 406 867 195 416 357 757 360 757 3 0 12 -12 21 -26 l16 -26 12 30
c11 26 10 34 -6 58 l-18 28 -9 -27 c-6 -15 -13 -27 -17 -27 -4 0 -65 85 -136
190 -70 104 -130 189 -133 189 -3 0 -327 -188 -720 -418z"/>
<path d="M6810 8733 c-124 -228 -230 -423 -237 -432 -11 -14 -14 -14 -29 8
l-17 24 -14 -27 c-12 -23 -11 -29 3 -52 l17 -26 15 27 c12 23 16 25 26 14 7
-8 210 -302 451 -654 240 -352 443 -646 449 -653 10 -10 46 49 174 285 l162
298 -2 579 -3 578 -383 224 c-211 123 -384 224 -385 224 -1 -1 -103 -188 -227
-417z"/>
<path d="M5530 8230 c-222 -473 -406 -860 -409 -860 -3 0 -12 10 -20 22 l-13
22 -15 -27 c-7 -15 -15 -27 -18 -27 -2 0 -195 234 -430 520 -234 286 -428 520
-431 520 -2 0 -4 -408 -4 -907 l1 -908 190 -110 c105 -60 195 -110 200 -110 5
0 112 220 238 488 126 268 232 491 235 494 4 4 14 -4 23 -16 l16 -24 14 27 c8
15 17 24 22 22 4 -3 122 -144 262 -315 192 -234 257 -307 265 -298 16 18 834
1524 834 1536 0 10 -520 773 -544 799 -10 10 -94 -161 -416 -848z"/>
<path d="M6114 7453 c-229 -422 -419 -770 -422 -773 -2 -3 -12 5 -21 17 l-18
22 -19 -24 -19 -24 -255 314 c-140 172 -257 314 -260 314 -6 1 -462 -970 -458
-974 8 -9 591 -345 597 -345 3 0 89 153 190 340 101 187 187 340 191 340 4 0
13 -7 20 -15 17 -20 27 -19 35 6 4 11 11 19 16 17 4 -2 171 -201 369 -443 199
-242 367 -439 373 -437 7 2 147 82 312 179 l301 175 198 364 c109 200 202 367
207 369 4 3 14 -4 22 -16 l15 -21 17 26 17 26 105 -152 c57 -84 108 -159 113
-167 6 -12 13 -12 39 -1 l31 12 0 417 0 416 -23 -40 c-13 -22 -76 -138 -141
-257 -65 -120 -122 -218 -127 -218 -5 0 -14 9 -21 20 -12 18 -13 18 -29 -6
l-17 -26 -45 64 c-24 34 -228 331 -452 658 -224 327 -411 599 -415 603 -4 5
-196 -337 -426 -760z"/>
<path d="M7318 6518 c-91 -167 -164 -305 -162 -306 1 -2 124 67 273 154 174
101 268 161 263 169 -45 71 -195 285 -201 285 -4 0 -82 -136 -173 -302z"/>
<path d="M5496 6318 c-88 -161 -170 -311 -182 -333 l-23 -40 339 -197 c244
-143 347 -198 370 -198 21 0 85 31 200 98 93 53 168 100 167 104 -4 13 -699
858 -706 858 -4 0 -78 -132 -165 -292z"/>
<path d="M3768 4660 c-122 -15 -108 42 -108 -451 l0 -429 60 0 60 0 0 389 c0
345 2 390 16 395 35 14 159 5 200 -13 156 -71 119 -278 -55 -306 -43 -7 -101
-49 -101 -73 0 -11 48 -22 94 -22 17 0 42 -7 54 -16 31 -21 68 -98 92 -191 12
-43 28 -97 36 -120 l16 -43 65 0 c58 0 65 2 60 18 -3 9 -22 71 -42 136 -44
145 -64 185 -111 224 -35 29 -35 30 -14 37 36 11 102 77 121 120 21 45 24 112
8 169 -15 54 -99 136 -164 159 -59 21 -191 29 -287 17z"/>
<path d="M2856 4263 c-76 -213 -147 -409 -157 -435 l-19 -48 64 0 64 0 35 98
35 97 146 3 146 3 -15 28 c-29 58 -58 71 -157 71 -49 0 -88 4 -86 8 2 5 34 99
72 209 l70 200 79 -231 c43 -127 98 -287 121 -356 l43 -125 66 -3 c37 -2 67 1
67 5 0 4 -69 199 -154 433 l-153 425 -64 3 -64 3 -139 -388z"/>
<path d="M4420 4600 l0 -50 125 0 125 0 0 -385 0 -385 65 0 65 0 0 385 0 385
120 0 120 0 0 50 0 50 -310 0 -310 0 0 -50z"/>
<path d="M5806 4642 c-5 -8 -272 -867 -282 -909 -6 -24 -5 -24 47 -21 l53 3
143 460 c78 253 143 463 143 468 0 9 -97 9 -104 -1z"/>
<path d="M6480 4215 l0 -435 60 0 60 0 0 385 0 385 190 0 190 0 0 50 0 50
-250 0 -250 0 0 -435z"/>
<path d="M7240 4215 l0 -435 235 0 235 0 1 28 c0 15 2 37 5 50 l4 22 -178 0
-177 0 0 383 0 382 -62 3 -63 3 0 -436z"/>
<path d="M7940 4215 l0 -435 260 0 260 0 0 50 0 50 -200 0 -200 0 0 335 0 335
190 0 190 0 0 50 0 50 -250 0 -250 0 0 -435z"/>
<path d="M8662 4641 c2 -4 118 -200 258 -434 l255 -426 74 -1 73 0 -14 23 c-8
12 -70 113 -137 223 l-121 202 125 206 c69 113 125 208 125 211 0 3 -31 5 -69
5 l-69 0 -90 -166 -90 -165 -88 165 -89 166 -73 0 c-41 0 -72 -4 -70 -9z"/>
<path d="M6706 4269 c-14 -11 -33 -34 -41 -50 l-16 -29 146 0 145 0 0 50 0 50
-104 0 c-90 0 -107 -3 -130 -21z"/>
<path d="M8166 4269 c-14 -11 -33 -34 -41 -50 l-16 -29 146 0 145 0 0 50 0 50
-104 0 c-90 0 -107 -3 -130 -21z"/>
<path d="M8758 3975 l-117 -195 69 0 69 0 70 128 c39 71 71 139 71 153 0 21
-34 110 -42 109 -2 -1 -56 -88 -120 -195z"/>
</g>
</svg>
